General
Complete name : Abhi Abhi - Jism 2 Sunny Leone -720p HD Song{ECS}.mp4
Format : MPEG-4
Format profile : Base Media
Codec ID : isom
File size : 55.0 MiB
Duration : 4mn 19s
Overall bit rate : 1 780 Kbps
Encoded date : UTC 2012-07-18 04:50:48
Tagged date : UTC 2012-07-18 04:50:48

Video
ID : 1
Format : AVC
Format/Info : Advanced Video Codec
Format profile : High@L3.1
Format settings, CABAC : Yes
Format settings, ReFrames : 5 frames
Codec ID : avc1
Codec ID/Info : Advanced Video Coding
Duration : 4mn 19s
Bit rate : 1 650 Kbps
Maximum bit rate : 5 697 Kbps
Width : 1 280 pixels
Height : 592 pixels
Display aspect ratio : 2.2:1
Frame rate mode : Constant
Frame rate : 23.976 fps
Color space : YUV
Chroma subsampling : 4:2:0
Bit depth : 8 bits
Scan type : Progressive
Bits/(Pixel*Frame) : 0.091
Stream size : 50.9 MiB (93%)
Writing library : x264 core 125 r2200 999b753


Audio
ID : 2
Format : AC-3
Format/Info : Audio Coding 3
Mode extension : CM (complete main)
Format settings, Endianness : Big
Codec ID : ac-3
Duration : 4mn 19s
Bit rate mode : Constant
Bit rate : 128 Kbps
Channel(s) : 2 channels
Channel positions : Front: L R
Sampling rate : 44.1 KHz
Bit depth : 16 bits
Compression mode : Lossy
Stream size : 3.95 MiB (7%)
Encoded date : UTC 2012-07-18 04:50:49
Tagged date : UTC 2012-07-18 04:50:49 
http://i1271.photobucket.com/albums/jj629/sameer_ecs/AbhiAbhi-Jism2SunnyLeone-720pHDSongECSmp4_thumbs_20120718_111316.jpg
* Give feedback & Do comment ....!
Download enjoy and share the happiness to others by seeding